<svg width="200" height="200" viewBox="0 0 200 200" fill="none" xmlns="http://www.w3.org/2000/svg">
<circle cx="100" cy="100" r="100" fill="url(#paint0_radial_205_47)"/>
<path d="M102.355 137.199H96.5589C92.4771 137.199 89.1599 140.516 89.1599 144.598V152.601C89.1599 156.683 92.4771 160 96.5589 160H102.355C106.437 160 109.754 156.683 109.754 152.601V144.598C109.754 140.504 106.437 137.199 102.355 137.199Z" fill="white"/>
<path d="M61.4874 75.2441L72.1791 76.5759C75.5703 76.9952 78.7889 75.0468 80.0097 71.8529C81.5512 67.8204 83.6969 64.6388 86.4469 62.3204C90.3438 59.0402 95.1901 57.3877 100.986 57.3877C106.992 57.3877 111.776 58.9662 115.328 62.1108C118.879 65.2677 120.643 69.0412 120.643 73.4683C120.643 76.6499 119.644 79.5602 117.646 82.1992C116.351 83.8763 112.368 87.4032 105.721 92.7922C99.0623 98.1811 94.6353 103.04 92.4156 107.356C90.1465 111.771 89.3573 116.666 89.16 121.574C88.9875 125.78 92.3416 129.282 96.559 129.282H102.602C106.449 129.282 109.631 126.334 109.976 122.512C110.223 119.762 110.679 117.678 111.37 116.26C112.529 113.83 115.525 110.624 120.335 106.628C129.645 98.921 135.712 92.8292 138.561 88.3404C141.397 83.864 142.828 79.1163 142.828 74.0973C142.828 65.0334 138.968 57.0795 131.236 50.2477C123.516 43.4159 113.108 40 100.037 40C87.6062 40 77.5805 43.3666 69.9348 50.112C63.4237 55.8586 59.4652 62.6657 58.0717 70.521C57.6399 72.8147 59.2061 74.9605 61.4874 75.2441Z" fill="white"/>
<defs>
<radialGradient id="paint0_radial_205_47" cx="0" cy="0" r="1" gradientUnits="userSpaceOnUse" gradientTransform="translate(200 -8.34465e-06) rotate(135.967) scale(188.471)">
<stop stop-color="#1CA18A"/>
<stop offset="1" stop-color="#07473D"/>
</radialGradient>
</defs>
</svg>
